<svg width="20" height="6" viewBox="0 0 20 6" fill="none" xmlns="http://www.w3.org/2000/svg">
<path d="M14.6667 3.00008C14.6667 4.28341 15.7167 5.33341 17 5.33341C18.2834 5.33341 19.3334 4.28341 19.3334 3.00008C19.3334 1.71675 18.2834 0.666748 17 0.666748C15.7167 0.666748 14.6667 1.71675 14.6667 3.00008ZM12.3334 3.00008C12.3334 1.71675 11.2834 0.666748 10 0.666748C8.71671 0.666748 7.66671 1.71675 7.66671 3.00008C7.66671 4.28341 8.71671 5.33341 10 5.33341C11.2834 5.33341 12.3334 4.28341 12.3334 3.00008ZM5.33337 3.00008C5.33337 1.71675 4.28337 0.666747 3.00004 0.666747C1.71671 0.666747 0.666708 1.71675 0.666708 3.00008C0.666708 4.28341 1.71671 5.33341 3.00004 5.33341C4.28337 5.33341 5.33337 4.28341 5.33337 3.00008Z" fill="black"/>
</svg>
